# xmcd
#
# Track frame offsets: 
#        150
#        15465
#        27967
#        42052
#        52152
#        65850
#        79692
#        89022
#        104092
#        114817
#        128827
#        145700
#        158930
#        172117
#        182877
#        195575
#        207537
#        219155
#
# Disc length: 3086 seconds
#
# Revision: 4
# Processed by: cddbd v1.5.2PL0 Copyright (c) Steve Scherf et al.
# Submitted via: ExactAudioCopy v0.95b2
#
DISCID=050c0c12
DTITLE=O.V. Wright - The Soul of O.V.Wright
DYEAR=1900
DGENRE=Soul
TTITLE0=You're Gonna Make Me Cry
TTITLE1=I'd Rather Be Blind, Crippled and Crazy
TTITLE2=When You Took Your Love From Me
TTITLE3=Gonna Forget About You
TTITLE4=Everybody Knows (The River Boat Song)
TTITLE5=Don't Let My Baby Ride
TTITLE6=I Don't Want To Sit Down
TTITLE7=Born All Over
TTITLE8=Ace of Spades
TTITLE9=Eight Men, Four Women
TTITLE10=A Nickel And A Nail
TTITLE11=Heartaches, Heartaches
TTITLE12=Drowning On Dry Land
TTITLE13=Monkey DOg
TTITLE14=He's My Son (Just The Same)
TTITLE15=I've Been Searching
TTITLE16=Motherless Child
TTITLE17=I'm Going Home (To Live WIth God)
EXTD=ID3G: 254
EXTT0=
EXTT1=
EXTT2=
EXTT3=
EXTT4=
EXTT5=
EXTT6=
EXTT7=
EXTT8=
EXTT9=
EXTT10=
EXTT11=
EXTT12=
EXTT13=
EXTT14=
EXTT15=
EXTT16=
EXTT17=
PLAYORDER=
